<svg xmlns="http://www.w3.org/2000/svg" width="1200" height="760" viewBox="0 0 1200 760" role="img" aria-labelledby="title desc">
<title id="title">Adaptive policy transitions and their cost</title>
<desc id="desc">Algorithm share across 10 random trees; bars show adaptive median time</desc>
<rect width="100%" height="100%" fill="#ffffff"/>
<style>text{font-family:-apple-system,BlinkMacSystemFont,"Segoe UI",sans-serif;fill:#202124}.title{font-size:28px;font-weight:600}.subtitle{font-size:15px;fill:#5f6368}.axis{stroke:#5f6368;stroke-width:1.2}.grid{stroke:#dadce0;stroke-width:1}.tick{font-size:13px;fill:#5f6368}.label{font-size:16px;font-weight:500}.legend{font-size:14px}.annotation{font-size:13px;font-weight:500}</style>
<text x="105.00" y="38.00" class="title" text-anchor="start">Adaptive policy transitions and their cost</text>
<text x="105.00" y="66.00" class="subtitle" text-anchor="start">Algorithm share across 10 random trees; bars show adaptive median time</text>
<line x1="105.00" y1="85.00" x2="105.00" y2="670.00" stroke="#5f6368" stroke-width="1.2" opacity="1"/>
<line x1="105.00" y1="670.00" x2="1160.00" y2="670.00" stroke="#5f6368" stroke-width="1.2" opacity="1"/>
<line x1="105.00" y1="670.00" x2="1160.00" y2="670.00" stroke="#dadce0" stroke-width="1" opacity="1"/>
<text x="93.00" y="675.00" class="tick" text-anchor="end">100 us</text>
<line x1="105.00" y1="553.00" x2="1160.00" y2="553.00" stroke="#dadce0" stroke-width="1" opacity="1"/>
<text x="93.00" y="558.00" class="tick" text-anchor="end">1 ms</text>
<line x1="105.00" y1="436.00" x2="1160.00" y2="436.00" stroke="#dadce0" stroke-width="1" opacity="1"/>
<text x="93.00" y="441.00" class="tick" text-anchor="end">10 ms</text>
<line x1="105.00" y1="319.00" x2="1160.00" y2="319.00" stroke="#dadce0" stroke-width="1" opacity="1"/>
<text x="93.00" y="324.00" class="tick" text-anchor="end">100 ms</text>
<line x1="105.00" y1="202.00" x2="1160.00" y2="202.00" stroke="#dadce0" stroke-width="1" opacity="1"/>
<text x="93.00" y="207.00" class="tick" text-anchor="end">1 s</text>
<line x1="105.00" y1="85.00" x2="1160.00" y2="85.00" stroke="#dadce0" stroke-width="1" opacity="1"/>
<text x="93.00" y="90.00" class="tick" text-anchor="end">10 s</text>
<line x1="105.00" y1="670.00" x2="105.00" y2="676.00" stroke="#5f6368" stroke-width="1" opacity="1"/>
<text x="105.00" y="695.00" class="tick" text-anchor="middle">10</text>
<line x1="330.52" y1="670.00" x2="330.52" y2="676.00" stroke="#5f6368" stroke-width="1" opacity="1"/>
<text x="330.52" y="695.00" class="tick" text-anchor="middle">20</text>
<line x1="462.44" y1="670.00" x2="462.44" y2="676.00" stroke="#5f6368" stroke-width="1" opacity="1"/>
<text x="462.44" y="695.00" class="tick" text-anchor="middle">30</text>
<line x1="556.04" y1="670.00" x2="556.04" y2="676.00" stroke="#5f6368" stroke-width="1" opacity="1"/>
<text x="556.04" y="695.00" class="tick" text-anchor="middle">40</text>
<line x1="738.12" y1="670.00" x2="738.12" y2="676.00" stroke="#5f6368" stroke-width="1" opacity="1"/>
<text x="738.12" y="695.00" class="tick" text-anchor="middle">70</text>
<line x1="854.16" y1="670.00" x2="854.16" y2="676.00" stroke="#5f6368" stroke-width="1" opacity="1"/>
<text x="854.16" y="695.00" class="tick" text-anchor="middle">100</text>
<line x1="934.48" y1="670.00" x2="934.48" y2="676.00" stroke="#5f6368" stroke-width="1" opacity="1"/>
<text x="934.48" y="695.00" class="tick" text-anchor="middle">128</text>
<line x1="1066.40" y1="670.00" x2="1066.40" y2="676.00" stroke="#5f6368" stroke-width="1" opacity="1"/>
<text x="1066.40" y="695.00" class="tick" text-anchor="middle">192</text>
<line x1="1160.00" y1="670.00" x2="1160.00" y2="676.00" stroke="#5f6368" stroke-width="1" opacity="1"/>
<text x="1160.00" y="695.00" class="tick" text-anchor="middle">256</text>
<text x="632.50" y="728.00" class="label" text-anchor="middle">Relations</text>
<text x="28.00" y="377.50" class="label" text-anchor="middle" transform="rotate(-90 28 377.5)">Adaptive optimization time</text>
<rect x="93.00" y="609.52" width="24.00" height="60.48" rx="0" fill="#D55E00" stroke="none" opacity="1"/>
<text x="105.00" y="600.52" class="annotation" text-anchor="middle">DpHyp:10</text>
<rect x="318.52" y="469.68" width="24.00" height="200.32" rx="0" fill="#D55E00" stroke="none" opacity="1"/>
<rect x="318.52" y="383.83" width="24.00" height="85.85" rx="0" fill="#009E73" stroke="none" opacity="1"/>
<text x="330.52" y="374.83" class="annotation" text-anchor="middle">DpHyp:7/LinearizedDp:3</text>
<rect x="450.44" y="500.34" width="24.00" height="169.66" rx="0" fill="#009E73" stroke="none" opacity="1"/>
<text x="462.44" y="491.34" class="annotation" text-anchor="middle">LinearizedDp:10</text>
<rect x="544.04" y="486.74" width="24.00" height="183.26" rx="0" fill="#009E73" stroke="none" opacity="1"/>
<text x="556.04" y="477.74" class="annotation" text-anchor="middle">LinearizedDp:10</text>
<rect x="726.12" y="447.15" width="24.00" height="222.85" rx="0" fill="#009E73" stroke="none" opacity="1"/>
<text x="738.12" y="438.15" class="annotation" text-anchor="middle">LinearizedDp:10</text>
<rect x="842.16" y="420.80" width="24.00" height="249.20" rx="0" fill="#009E73" stroke="none" opacity="1"/>
<text x="854.16" y="411.80" class="annotation" text-anchor="middle">LinearizedDp:10</text>
<rect x="922.48" y="312.40" width="24.00" height="357.60" rx="0" fill="#CC79A7" stroke="none" opacity="1"/>
<text x="934.48" y="303.40" class="annotation" text-anchor="middle">GooDp:10</text>
<rect x="1054.40" y="224.76" width="24.00" height="445.24" rx="0" fill="#CC79A7" stroke="none" opacity="1"/>
<text x="1066.40" y="215.76" class="annotation" text-anchor="middle">GooDp:10</text>
<rect x="1148.00" y="158.81" width="24.00" height="511.19" rx="0" fill="#CC79A7" stroke="none" opacity="1"/>
<text x="1160.00" y="149.81" class="annotation" text-anchor="middle">GooDp:10</text>
<rect x="105.00" y="92.00" width="18.00" height="18.00" rx="2" fill="#D55E00" stroke="none" opacity="1"/>
<text x="133.00" y="106.00" class="legend" text-anchor="start">DPhyp</text>
<rect x="335.00" y="92.00" width="18.00" height="18.00" rx="2" fill="#009E73" stroke="none" opacity="1"/>
<text x="363.00" y="106.00" class="legend" text-anchor="start">Linearized DP</text>
<rect x="565.00" y="92.00" width="18.00" height="18.00" rx="2" fill="#CC79A7" stroke="none" opacity="1"/>
<text x="593.00" y="106.00" class="legend" text-anchor="start">GOO/DP</text>
</svg>
