<svg xmlns="http://www.w3.org/2000/svg" width="1200" height="760" viewBox="0 0 1200 760" role="img" aria-labelledby="title desc">
<title id="title">RelationSet cost across inline and dense boundaries</title>
<desc id="desc">Median union/subset/disjoint workload; vertical lines mark representation changes</desc>
<rect width="100%" height="100%" fill="#ffffff"/>
<style>text{font-family:-apple-system,BlinkMacSystemFont,"Segoe UI",sans-serif;fill:#202124}.title{font-size:28px;font-weight:600}.subtitle{font-size:15px;fill:#5f6368}.axis{stroke:#5f6368;stroke-width:1.2}.grid{stroke:#dadce0;stroke-width:1}.tick{font-size:13px;fill:#5f6368}.label{font-size:16px;font-weight:500}.legend{font-size:14px}.annotation{font-size:13px;font-weight:500}</style>
<text x="105.00" y="38.00" class="title" text-anchor="start">RelationSet cost across inline and dense boundaries</text>
<text x="105.00" y="66.00" class="subtitle" text-anchor="start">Median union/subset/disjoint workload; vertical lines mark representation changes</text>
<line x1="105.00" y1="85.00" x2="105.00" y2="670.00" stroke="#5f6368" stroke-width="1.2" opacity="1"/>
<line x1="105.00" y1="670.00" x2="1160.00" y2="670.00" stroke="#5f6368" stroke-width="1.2" opacity="1"/>
<line x1="105.00" y1="670.00" x2="1160.00" y2="670.00" stroke="#dadce0" stroke-width="1" opacity="1"/>
<text x="93.00" y="675.00" class="tick" text-anchor="end">0</text>
<line x1="105.00" y1="553.00" x2="1160.00" y2="553.00" stroke="#dadce0" stroke-width="1" opacity="1"/>
<text x="93.00" y="558.00" class="tick" text-anchor="end">10</text>
<line x1="105.00" y1="436.00" x2="1160.00" y2="436.00" stroke="#dadce0" stroke-width="1" opacity="1"/>
<text x="93.00" y="441.00" class="tick" text-anchor="end">20</text>
<line x1="105.00" y1="319.00" x2="1160.00" y2="319.00" stroke="#dadce0" stroke-width="1" opacity="1"/>
<text x="93.00" y="324.00" class="tick" text-anchor="end">30</text>
<line x1="105.00" y1="202.00" x2="1160.00" y2="202.00" stroke="#dadce0" stroke-width="1" opacity="1"/>
<text x="93.00" y="207.00" class="tick" text-anchor="end">40</text>
<line x1="105.00" y1="85.00" x2="1160.00" y2="85.00" stroke="#dadce0" stroke-width="1" opacity="1"/>
<text x="93.00" y="90.00" class="tick" text-anchor="end">50</text>
<text x="105.00" y="695.00" class="tick" text-anchor="middle">32</text>
<text x="222.22" y="695.00" class="tick" text-anchor="middle">63</text>
<text x="339.44" y="695.00" class="tick" text-anchor="middle">64</text>
<text x="456.67" y="695.00" class="tick" text-anchor="middle">65</text>
<text x="573.89" y="695.00" class="tick" text-anchor="middle">127</text>
<text x="691.11" y="695.00" class="tick" text-anchor="middle">128</text>
<text x="808.33" y="695.00" class="tick" text-anchor="middle">129</text>
<text x="925.56" y="695.00" class="tick" text-anchor="middle">256</text>
<text x="1042.78" y="695.00" class="tick" text-anchor="middle">512</text>
<text x="1160.00" y="695.00" class="tick" text-anchor="middle">1024</text>
<polyline points="105.00,579.81 222.22,579.69 339.44,576.86 456.67,570.28 573.89,573.50 691.11,573.38 808.33,295.06 925.56,284.61 1042.78,250.58 1160.00,143.99" fill="none" stroke="#0072B2" stroke-width="2.5" stroke-linejoin="round" stroke-linecap="round"/>
<circle cx="105.00" cy="579.81" r="5" fill="#0072B2" stroke="#ffffff" stroke-width="1.5"/>
<circle cx="222.22" cy="579.69" r="5" fill="#0072B2" stroke="#ffffff" stroke-width="1.5"/>
<circle cx="339.44" cy="576.86" r="5" fill="#0072B2" stroke="#ffffff" stroke-width="1.5"/>
<circle cx="456.67" cy="570.28" r="5" fill="#0072B2" stroke="#ffffff" stroke-width="1.5"/>
<circle cx="573.89" cy="573.50" r="5" fill="#0072B2" stroke="#ffffff" stroke-width="1.5"/>
<circle cx="691.11" cy="573.38" r="5" fill="#0072B2" stroke="#ffffff" stroke-width="1.5"/>
<circle cx="808.33" cy="295.06" r="5" fill="#0072B2" stroke="#ffffff" stroke-width="1.5"/>
<circle cx="925.56" cy="284.61" r="5" fill="#0072B2" stroke="#ffffff" stroke-width="1.5"/>
<circle cx="1042.78" cy="250.58" r="5" fill="#0072B2" stroke="#ffffff" stroke-width="1.5"/>
<circle cx="1160.00" cy="143.99" r="5" fill="#0072B2" stroke="#ffffff" stroke-width="1.5"/>
<line x1="105.00" y1="103.00" x2="133.00" y2="103.00" stroke="#0072B2" stroke-width="3" opacity="1"/>
<text x="143.00" y="108.00" class="legend" text-anchor="start">Borrowed union</text>
<polyline points="105.00,593.17 222.22,593.17 339.44,590.95 456.67,577.08 573.89,577.13 691.11,577.20 808.33,308.81 925.56,291.50 1042.78,260.48 1160.00,149.47" fill="none" stroke="#D55E00" stroke-width="2.5" stroke-linejoin="round" stroke-linecap="round"/>
<circle cx="105.00" cy="593.17" r="5" fill="#D55E00" stroke="#ffffff" stroke-width="1.5"/>
<circle cx="222.22" cy="593.17" r="5" fill="#D55E00" stroke="#ffffff" stroke-width="1.5"/>
<circle cx="339.44" cy="590.95" r="5" fill="#D55E00" stroke="#ffffff" stroke-width="1.5"/>
<circle cx="456.67" cy="577.08" r="5" fill="#D55E00" stroke="#ffffff" stroke-width="1.5"/>
<circle cx="573.89" cy="577.13" r="5" fill="#D55E00" stroke="#ffffff" stroke-width="1.5"/>
<circle cx="691.11" cy="577.20" r="5" fill="#D55E00" stroke="#ffffff" stroke-width="1.5"/>
<circle cx="808.33" cy="308.81" r="5" fill="#D55E00" stroke="#ffffff" stroke-width="1.5"/>
<circle cx="925.56" cy="291.50" r="5" fill="#D55E00" stroke="#ffffff" stroke-width="1.5"/>
<circle cx="1042.78" cy="260.48" r="5" fill="#D55E00" stroke="#ffffff" stroke-width="1.5"/>
<circle cx="1160.00" cy="149.47" r="5" fill="#D55E00" stroke="#ffffff" stroke-width="1.5"/>
<line x1="390.00" y1="103.00" x2="418.00" y2="103.00" stroke="#D55E00" stroke-width="3" opacity="1"/>
<text x="428.00" y="108.00" class="legend" text-anchor="start">Allocating assignment (old)</text>
<polyline points="105.00,606.53 222.22,606.43 339.44,604.68 456.67,594.39 573.89,597.70 691.11,597.87 808.33,583.98 925.56,552.95 1042.78,538.81 1160.00,419.94" fill="none" stroke="#009E73" stroke-width="2.5" stroke-linejoin="round" stroke-linecap="round"/>
<circle cx="105.00" cy="606.53" r="5" fill="#009E73" stroke="#ffffff" stroke-width="1.5"/>
<circle cx="222.22" cy="606.43" r="5" fill="#009E73" stroke="#ffffff" stroke-width="1.5"/>
<circle cx="339.44" cy="604.68" r="5" fill="#009E73" stroke="#ffffff" stroke-width="1.5"/>
<circle cx="456.67" cy="594.39" r="5" fill="#009E73" stroke="#ffffff" stroke-width="1.5"/>
<circle cx="573.89" cy="597.70" r="5" fill="#009E73" stroke="#ffffff" stroke-width="1.5"/>
<circle cx="691.11" cy="597.87" r="5" fill="#009E73" stroke="#ffffff" stroke-width="1.5"/>
<circle cx="808.33" cy="583.98" r="5" fill="#009E73" stroke="#ffffff" stroke-width="1.5"/>
<circle cx="925.56" cy="552.95" r="5" fill="#009E73" stroke="#ffffff" stroke-width="1.5"/>
<circle cx="1042.78" cy="538.81" r="5" fill="#009E73" stroke="#ffffff" stroke-width="1.5"/>
<circle cx="1160.00" cy="419.94" r="5" fill="#009E73" stroke="#ffffff" stroke-width="1.5"/>
<line x1="675.00" y1="103.00" x2="703.00" y2="103.00" stroke="#009E73" stroke-width="3" opacity="1"/>
<text x="713.00" y="108.00" class="legend" text-anchor="start">In-place assignment</text>
<line x1="398.06" y1="85.00" x2="398.06" y2="670.00" stroke="#D55E00" stroke-width="2" opacity="1" stroke-dasharray="7 5"/>
<text x="406.06" y="133.00" class="annotation" text-anchor="start">Inline64 -&gt; Inline128</text>
<line x1="749.72" y1="85.00" x2="749.72" y2="670.00" stroke="#E69F00" stroke-width="2" opacity="1" stroke-dasharray="7 5"/>
<text x="757.72" y="155.00" class="annotation" text-anchor="start">Inline128 -&gt; Dense</text>
<text x="632.50" y="728.00" class="label" text-anchor="middle">Relation count</text>
<text x="28.00" y="377.50" class="label" text-anchor="middle" transform="rotate(-90 28 377.5)">Nanoseconds per workload iteration</text>
</svg>
